<?xml version="1.0" encoding="UTF-8"?>
<svg id="Layer_1" xmlns="http://www.w3.org/2000/svg" version="1.1" viewBox="0 0 1216.6 627">
  <!-- Generator: Adobe Illustrator 30.5.1, SVG Export Plug-In . SVG Version: 2.1.4 Build 3)  -->
  <defs>
    <style>
      .st0 {
        fill: #fcfcfc;
        opacity: .1;
      }

      .st1 {
        fill: none;
        stroke: #0883cf;
        stroke-linecap: square;
        stroke-width: 2px;
      }

      .st2, .st3 {
        fill: #fff;
      }

      .st3 {
        font-family: Montserrat-Bold, Montserrat;
        font-size: 48px;
        font-weight: 700;
        isolation: isolate;
      }

      .st4 {
        fill: #0a5a9d;
      }

      .st5 {
        fill: #032b43;
      }
    </style>
  </defs>
  <rect class="st5" x="16.6" width="1200" height="627"/>
  <text class="st3" transform="translate(189.5 206)"><tspan x="0" y="0">Could your delivery infrastructure</tspan></text>
  <text class="st3" transform="translate(103.5 268)"><tspan x="0" y="0">produce that same result next quarter —</tspan></text>
  <text class="st3" transform="translate(287.7 330)"><tspan x="0" y="0">with a different facilitator,</tspan></text>
  <text class="st3" transform="translate(268.2 392)"><tspan x="0" y="0">for a more complex cohort?</tspan></text>
  <line class="st1" x1="1" y1="590" x2="952.6" y2="590"/>
  <g>
    <path class="st2" d="M988.3,595.6c0,0-.2-.2-.3-.3l-.4-.4c-.5-.5-.9-1.1-1.3-1.6-.4-.6-.7-1.2-1-1.8-.6-1.3-.9-2.7-1.1-4.1,0-.7,0-1.5,0-2.2,0-.7.1-1.5.3-2.2s.4-1.4.7-2.1c.3-.7.6-1.4,1-2,.2-.3.4-.6.6-.9l.4-.5c.1-.2.2-.3.4-.4.5-.6,1-1.1,1.6-1.6,2.4-2,5.5-3.2,8.7-3.4-.8,0-1.6,0-2.4,0-.2,0-.4,0-.6,0h-.6c0,0-.6.2-.6.2-.2,0-.4,0-.6.1-.8.2-1.6.5-2.4.8-.8.3-1.5.7-2.2,1.2-.7.4-1.4,1-2,1.5-.2.1-.3.3-.5.4l-.5.5c-.3.3-.6.6-.8,1-.5.7-1,1.4-1.5,2.1-.4.8-.8,1.5-1.1,2.4-.3.8-.5,1.7-.7,2.5-.2.9-.3,1.7-.3,2.6,0,1.8.2,3.6.7,5.3.3.9.6,1.7,1,2.5.4.8.9,1.6,1.4,2.4l.4.6c.1.2.3.4.4.5.3.4.6.7.9,1,.3.3.7.7,1,1l-2.4,2.1,13-.8-9.9-8.5.4,2.1h0s0,0,0,0Z"/>
    <path class="st2" d="M988.3,572.3c-2,.8-3.8,2.1-5.3,3.7-1.5,1.6-2.6,3.6-3.3,5.7-.6,2-.9,4.1-.7,6.2l-.4-.2,1.3,2.1.5-2.4-.3.3c-.2-1.9-.1-3.9.4-5.8.6-2,1.5-3.9,2.9-5.5,1.4-1.6,3.1-3,5-3.9,1.9-.9,4.1-1.4,6.2-1.4-2.2,0-4.3.3-6.3,1.2h0Z"/>
    <path class="st2" d="M1010.2,583.3c0-.2-.1-.4-.2-.6l-.2-.6-.3-.6c0-.2-.2-.4-.3-.6,0-.1,0-.2-.1-.3l-.2-.3c-.1-.2-.2-.4-.3-.6l-.4-.6-.4-.6c0,0-.1-.2-.2-.3l-.2-.3-.2-.3-.2-.3c-.1-.2-.3-.4-.4-.5-.2-.2-.3-.3-.5-.5-.3-.3-.6-.7-1-1l2.4-2-13,.6,9.7,8.7-.4-2.1h0c0,0,.2.3.2.3l.2.2c0,0,.1.1.2.2l.3.4.3.4c.1.1.2.3.3.4l.2.2v.2c.2.1.3.3.4.4l.3.5.2.5c0,.2.1.3.2.5,1.1,2.6,1.4,5.6.8,8.4-.2.7-.4,1.4-.7,2.1s-.6,1.3-1,2c-.1.2-.2.3-.3.5l-.3.5c-.2.3-.5.6-.7.9-.2.3-.5.6-.8.8l-.4.4c-.1.1-.3.3-.4.4-.6.5-1.2,1-1.9,1.4-.7.4-1.4.7-2.1,1s-1.5.5-2.2.7c-.8.2-1.6.3-2.4.3.8,0,1.6,0,2.4,0,.8,0,1.6-.2,2.4-.4.8-.2,1.6-.5,2.3-.8.8-.3,1.5-.7,2.2-1.2.2-.1.4-.2.5-.4l.5-.4c.3-.3.7-.5,1-.8.3-.3.6-.6.9-.9l.4-.5c.1-.2.3-.3.4-.5.5-.7,1-1.4,1.4-2.1.4-.7.8-1.5,1.1-2.3,1.2-3.2,1.4-6.9.4-10.4,0,0,0,0,0,0Z"/>
    <path class="st2" d="M1012.7,592.6l-.7-2.3-1.1,2.2.4-.2c-.2,1.6-.7,3.1-1.4,4.6-.8,1.6-1.9,3-3.2,4.2s-2.8,2.2-4.5,2.9c-1.7.7-3.4,1.1-5.3,1.1,1.8,0,3.6-.2,5.3-.9,1.7-.6,3.3-1.5,4.7-2.7,1.4-1.2,2.6-2.6,3.5-4.2.8-1.5,1.4-3.2,1.7-4.9l.4.3h0Z"/>
    <path class="st2" d="M1024.1,581.2l-.2-.3c0,0,1.6-1.3,9.7-2.6,7.4-1.2,21.9-2.6,49.1-2.6s37.5,1.2,44.9,2.2c8,1.1,10.4,2.2,10.5,2.2l-.2.3s-2.4-1.1-10.4-2.2c-7.4-1-21.1-2.2-44.8-2.2s-41.5,1.4-48.8,2.5c-8,1.3-9.7,2.5-9.7,2.5h0Z"/>
    <path class="st2" d="M1159.8,580.8c-.1,0-.4,0-.8-.2-11.3-2.8-31.4-4.2-58.2-4.2v-.4c26.8,0,47,1.5,58.3,4.2.2,0,.4.1.6.1h0c.2,0,.3.1.2.3,0,0,0,.1-.2.1h0Z"/>
    <path class="st2" d="M1022.8,580.4c0-1.3,1.1-2.4,2.7-2.4s2.7,1,2.7,2.3-1.1,2.4-2.7,2.4-2.7-1-2.7-2.3Z"/>
    <rect class="st2" x="1023.3" y="584.1" width="4.4" height="12.6"/>
    <path class="st2" d="M1044,589.5v7.2h-4.4v-6.5c0-1.8-.8-2.6-2.1-2.6s-2.5.9-2.5,3v6.1h-4.4v-12.6h4.2v1.4c1-1,2.4-1.6,4-1.6,3,0,5.2,1.7,5.2,5.6h0Z"/>
    <path class="st2" d="M1045.8,595.6l1.3-3c1.2.7,2.9,1.2,4.4,1.2s2-.3,2-.9c0-1.7-7.4.2-7.4-4.8s2.2-4.2,6.1-4.2,3.7.4,5,1.1l-1.3,3c-1.3-.7-2.5-.9-3.6-.9s-2,.4-2,.9c0,1.7,7.4-.1,7.4,4.9s-2.1,4.1-6.2,4.1-4.3-.5-5.6-1.3h0Z"/>
    <path class="st2" d="M1072.6,584.1l-5.4,13.1c-1.3,3.3-3.2,4.2-5.7,4.2s-2.8-.4-3.7-1.1l1.5-3.1c.5.5,1.3.7,2,.7s1.3-.3,1.7-1.1l-5.4-12.8h4.5l3.1,7.7,3.1-7.7h4.2,0Z"/>
    <path class="st2" d="M1087.1,589.5v7.2h-4.4v-6.5c0-1.8-.8-2.6-2.1-2.6s-2.5.9-2.5,3v6.1h-4.4v-12.6h4.2v1.4c1-1,2.4-1.6,4-1.6,3,0,5.2,1.7,5.2,5.6h0Z"/>
    <path class="st2" d="M1089.3,590.4c0-3.8,3-6.5,7.2-6.5s5,1.3,5.9,3.5l-3.4,1.7c-.6-1.2-1.5-1.7-2.5-1.7-1.5,0-2.7,1.1-2.7,3s1.2,3,2.7,3,1.9-.5,2.5-1.7l3.4,1.7c-.9,2.2-3,3.5-5.9,3.5-4.2,0-7.2-2.7-7.2-6.5Z"/>
    <path class="st2" d="M1111.4,596c-.7.6-1.6.9-2.6.9-2.3,0-3.6-1.3-3.6-3.6v-7.4h-2.2v-1.4h2.2v-2.7h1.7v2.7h3.7v1.4h-3.7v7.3c0,1.4.7,2.2,2.1,2.2s1.3-.2,1.8-.6l.6,1.2h0Z"/>
    <path class="st2" d="M1120.6,584.4v1.6c-.1,0-.3,0-.4,0-2.6,0-4.1,1.6-4.1,4.5v6.2h-1.7v-12.2h1.6v2.4c.8-1.6,2.3-2.5,4.6-2.5h0Z"/>
    <path class="st2" d="M1132.8,589.1v7.6h-1.6v-1.9c-.7,1.3-2.2,2-4.2,2s-4.5-1.4-4.5-3.6,1.2-3.5,4.7-3.5h3.9v-.7c0-2.1-1.2-3.2-3.5-3.2s-3.1.6-4.1,1.4l-.7-1.2c1.2-1,3-1.7,5-1.7,3.2,0,5,1.6,5,4.7,0,0,0,0,0,0ZM1131.1,593v-2h-3.8c-2.4,0-3.1.9-3.1,2.2s1.1,2.3,3.1,2.3,3.2-.9,3.9-2.5h0Z"/>
    <path class="st2" d="M1136.9,580.6c0-.6.5-1.2,1.2-1.2s1.2.5,1.2,1.1-.5,1.2-1.2,1.2-1.2-.5-1.2-1.2ZM1137.2,584.5h1.7v12.2h-1.7v-12.2Z"/>
    <path class="st2" d="M1154.7,589.6v7.1h-1.7v-6.9c0-2.6-1.3-3.9-3.7-3.9s-4.3,1.6-4.3,4.4v6.4h-1.7v-12.2h1.6v2.3c.9-1.5,2.5-2.4,4.7-2.4s5,1.7,5,5.2h0Z"/>
    <path class="st2" d="M1158.9,580.6c0-.6.5-1.2,1.2-1.2s1.2.5,1.2,1.1-.5,1.2-1.2,1.2-1.2-.5-1.2-1.2ZM1159.2,584.5h1.7v12.2h-1.7v-12.2Z"/>
    <path class="st2" d="M1176.7,589.6v7.1h-1.7v-6.9c0-2.6-1.3-3.9-3.7-3.9s-4.3,1.6-4.3,4.4v6.4h-1.7v-12.2h1.6v2.3c.9-1.5,2.5-2.4,4.7-2.4s5,1.7,5,5.2h0Z"/>
    <path class="st2" d="M1192.6,584.5v10.7c0,4.2-2.1,6.1-6.1,6.1s-4.4-.7-5.7-1.9l.8-1.3c1.2,1,2.9,1.7,4.8,1.7,3.1,0,4.5-1.4,4.5-4.4v-1.6c-1,1.6-2.8,2.4-4.8,2.4-3.5,0-6.1-2.4-6.1-6s2.7-5.9,6.1-5.9,3.8.8,4.8,2.4v-2.4h1.6,0ZM1191,590.3c0-2.7-2-4.5-4.7-4.5s-4.6,1.8-4.6,4.5,1.9,4.5,4.6,4.5,4.7-1.8,4.7-4.5Z"/>
  </g>
  <g>
    <circle class="st4" cx="166.1" cy="354.4" r="1.9"/>
    <circle class="st4" cx="183" cy="354.4" r="1.9"/>
    <circle class="st4" cx="199.8" cy="354.4" r="1.9"/>
    <circle class="st4" cx="216.7" cy="354.4" r="1.9"/>
    <circle class="st4" cx="233.6" cy="354.4" r="1.9"/>
    <circle class="st4" cx="166.1" cy="371.8" r="1.9"/>
    <circle class="st4" cx="183" cy="371.8" r="1.9"/>
    <circle class="st4" cx="199.8" cy="371.8" r="1.9"/>
    <circle class="st4" cx="216.7" cy="371.8" r="1.9"/>
    <circle class="st4" cx="233.6" cy="371.8" r="1.9"/>
    <circle class="st4" cx="166.1" cy="389.1" r="1.9"/>
    <circle class="st4" cx="183" cy="389.1" r="1.9"/>
    <circle class="st4" cx="199.8" cy="389.1" r="1.9"/>
    <circle class="st4" cx="216.7" cy="389.1" r="1.9"/>
    <circle class="st4" cx="233.6" cy="389.1" r="1.9"/>
    <circle class="st4" cx="166.1" cy="406.4" r="1.9"/>
    <circle class="st4" cx="183" cy="406.4" r="1.9"/>
    <circle class="st4" cx="199.8" cy="406.4" r="1.9"/>
    <circle class="st4" cx="216.7" cy="406.4" r="1.9"/>
    <circle class="st4" cx="233.6" cy="406.4" r="1.9"/>
    <circle class="st4" cx="166.1" cy="423.8" r="1.9"/>
    <circle class="st4" cx="183" cy="423.8" r="1.9"/>
    <circle class="st4" cx="199.8" cy="423.8" r="1.9"/>
    <circle class="st4" cx="216.7" cy="423.8" r="1.9"/>
    <circle class="st4" cx="233.6" cy="423.8" r="1.9"/>
    <circle class="st4" cx="166.1" cy="441.1" r="1.9"/>
    <circle class="st4" cx="183" cy="441.1" r="1.9"/>
    <circle class="st4" cx="199.8" cy="441.1" r="1.9"/>
    <circle class="st4" cx="216.7" cy="441.1" r="1.9"/>
    <circle class="st4" cx="233.6" cy="441.1" r="1.9"/>
    <circle class="st4" cx="166.1" cy="458.4" r="1.9"/>
    <circle class="st4" cx="183" cy="458.4" r="1.9"/>
    <circle class="st4" cx="199.8" cy="458.4" r="1.9"/>
    <circle class="st4" cx="216.7" cy="458.4" r="1.9"/>
    <circle class="st4" cx="233.6" cy="458.4" r="1.9"/>
    <circle class="st4" cx="166.1" cy="475.8" r="1.9"/>
    <circle class="st4" cx="183" cy="475.8" r="1.9"/>
    <circle class="st4" cx="199.8" cy="475.8" r="1.9"/>
    <circle class="st4" cx="216.7" cy="475.8" r="1.9"/>
    <circle class="st4" cx="233.6" cy="475.8" r="1.9"/>
  </g>
  <g>
    <circle class="st4" cx="1087.3" cy="66.9" r="2.1"/>
    <circle class="st4" cx="1106" cy="66.9" r="2.1"/>
    <circle class="st4" cx="1124.7" cy="66.9" r="2.1"/>
    <circle class="st4" cx="1143.4" cy="66.9" r="2.1"/>
    <circle class="st4" cx="1162.1" cy="66.9" r="2.1"/>
    <circle class="st4" cx="1087.3" cy="86.1" r="2.1"/>
    <circle class="st4" cx="1106" cy="86.1" r="2.1"/>
    <circle class="st4" cx="1124.7" cy="86.1" r="2.1"/>
    <circle class="st4" cx="1143.4" cy="86.1" r="2.1"/>
    <circle class="st4" cx="1162.1" cy="86.1" r="2.1"/>
    <circle class="st4" cx="1087.3" cy="105.3" r="2.1"/>
    <circle class="st4" cx="1106" cy="105.3" r="2.1"/>
    <circle class="st4" cx="1124.7" cy="105.3" r="2.1"/>
    <circle class="st4" cx="1143.4" cy="105.3" r="2.1"/>
    <circle class="st4" cx="1162.1" cy="105.3" r="2.1"/>
    <circle class="st4" cx="1087.3" cy="124.5" r="2.1"/>
    <circle class="st4" cx="1106" cy="124.5" r="2.1"/>
    <circle class="st4" cx="1124.7" cy="124.5" r="2.1"/>
    <circle class="st4" cx="1143.4" cy="124.5" r="2.1"/>
    <circle class="st4" cx="1162.1" cy="124.5" r="2.1"/>
    <circle class="st4" cx="1087.3" cy="143.7" r="2.1"/>
    <circle class="st4" cx="1106" cy="143.7" r="2.1"/>
    <circle class="st4" cx="1124.7" cy="143.7" r="2.1"/>
    <circle class="st4" cx="1143.4" cy="143.7" r="2.1"/>
    <circle class="st4" cx="1162.1" cy="143.7" r="2.1"/>
    <circle class="st4" cx="1087.3" cy="162.9" r="2.1"/>
    <circle class="st4" cx="1106" cy="162.9" r="2.1"/>
    <circle class="st4" cx="1124.7" cy="162.9" r="2.1"/>
    <circle class="st4" cx="1143.4" cy="162.9" r="2.1"/>
    <circle class="st4" cx="1162.1" cy="162.9" r="2.1"/>
    <circle class="st4" cx="1087.3" cy="182.1" r="2.1"/>
    <circle class="st4" cx="1106" cy="182.1" r="2.1"/>
    <circle class="st4" cx="1124.7" cy="182.1" r="2.1"/>
    <circle class="st4" cx="1143.4" cy="182.1" r="2.1"/>
    <circle class="st4" cx="1162.1" cy="182.1" r="2.1"/>
    <circle class="st4" cx="1087.3" cy="201.3" r="2.1"/>
    <circle class="st4" cx="1106" cy="201.3" r="2.1"/>
    <circle class="st4" cx="1124.7" cy="201.3" r="2.1"/>
    <circle class="st4" cx="1143.4" cy="201.3" r="2.1"/>
    <circle class="st4" cx="1162.1" cy="201.3" r="2.1"/>
  </g>
  <path class="st0" d="M110.6,177.9c-.4-.4-.9-.8-1.3-1.2l-1.7-1.7c-2.2-2.4-4.2-4.9-6-7.7-1.8-2.7-3.4-5.6-4.7-8.6-2.7-6-4.4-12.6-5.1-19.3-.4-3.4-.4-6.8-.2-10.2.2-3.4.7-6.8,1.5-10.2.8-3.4,1.8-6.7,3.1-9.9,1.3-3.3,2.9-6.4,4.8-9.4.9-1.5,1.9-3,3-4.4l1.6-2.1c.5-.7,1.1-1.4,1.7-2.1,2.4-2.7,4.9-5.3,7.7-7.6,11-9.4,25.5-15,40.6-15.8-3.8-.3-7.6-.3-11.4,0-.9,0-1.9.1-2.8.3l-2.8.4-2.8.5c-.9.2-1.9.4-2.8.7-3.7.9-7.4,2.2-11,3.7-3.6,1.6-7,3.4-10.3,5.5-3.3,2.1-6.4,4.5-9.4,7.2-.7.7-1.5,1.3-2.2,2l-2.1,2.1c-1.3,1.5-2.7,2.9-3.9,4.5-2.5,3.1-4.8,6.4-6.8,10-2,3.5-3.7,7.2-5.1,11-1.4,3.8-2.5,7.8-3.3,11.8-.8,4-1.3,8.2-1.4,12.3-.2,8.3.8,16.8,3.3,24.9,1.2,4.1,2.7,8.1,4.6,11.9,1.9,3.8,4.1,7.5,6.6,11.1l1.9,2.6c.6.9,1.4,1.7,2,2.5,1.4,1.7,2.8,3.3,4.4,4.8,1.5,1.6,3.1,3.1,4.8,4.5l-11,9.7,60.8-3.9-46.1-39.8,2,9.9Z"/>
  <path class="st0" d="M110.5,69.2c-9.4,3.9-17.9,10-24.9,17.5-7,7.5-12.3,16.7-15.4,26.5-3,9.3-4.1,19.2-3.2,29l-2.1-.7,6.2,9.7,2.3-11.3-1.6,1.4c-1.1-8.9-.5-18.1,1.9-26.9,2.6-9.4,7.2-18.4,13.7-25.9,6.4-7.6,14.4-13.8,23.5-18,9.1-4.2,19.1-6.5,29.1-6.6-10.1-.3-20.3,1.5-29.7,5.4Z"/>
  <g>
    <path class="st0" d="M1080.1,385c-.3-.9-.5-1.9-.9-2.8l-1-2.8-1.1-2.7c-.4-.9-.8-1.8-1.2-2.7-.2-.4-.4-.9-.6-1.3l-.7-1.3c-.5-.9-.9-1.8-1.4-2.6l-1.5-2.6-1.7-2.5c-.3-.4-.6-.8-.9-1.2l-.9-1.2-.9-1.2-.9-1.2c-.6-.8-1.3-1.6-1.9-2.3-.7-.8-1.3-1.5-2-2.2-1.4-1.4-2.8-2.8-4.3-4.2l10.4-8.9-56.9,2.8,42.6,37.9-1.8-9.4.3.3.8.8.8.8c.3.3.5.5.8.8l1.5,1.7,1.4,1.8c.5.6.9,1.2,1.3,1.8l.7.9.6,1c.4.6.8,1.3,1.2,1.9l1.1,2,1,2c.4.7.6,1.4,1,2.1,5,11.2,6.3,24.3,3.4,36.8-.7,3.1-1.7,6.2-2.9,9.2-1.2,3-2.7,5.9-4.4,8.7-.4.7-.8,1.4-1.3,2.1l-1.4,2c-1,1.3-2,2.6-3.1,3.9-1.1,1.3-2.2,2.5-3.4,3.7l-1.8,1.7c-.6.6-1.3,1.1-1.9,1.7-2.5,2.2-5.3,4.2-8.2,5.9-2.9,1.7-5.9,3.3-9.1,4.6-3.2,1.3-6.5,2.3-9.8,3.1-3.4.8-6.8,1.3-10.3,1.5,3.5.2,7,.1,10.5-.2,3.5-.3,7-.9,10.4-1.9,3.4-.9,6.8-2.1,10.1-3.5,3.3-1.5,6.5-3.2,9.5-5.2.7-.5,1.5-1,2.3-1.5l2.2-1.6c1.4-1.1,2.9-2.3,4.2-3.5,1.4-1.2,2.7-2.5,3.9-3.8l1.9-2.1c.6-.7,1.2-1.4,1.8-2.1,2.3-2.9,4.4-6,6.3-9.2,1.8-3.3,3.4-6.7,4.7-10.2,5.2-14.2,6-30.3,1.5-45.3Z"/>
    <path class="st0" d="M1091,425.3l-3.3-10.2-4.8,9.6,1.8-.9c-.9,6.9-3,13.7-6.1,20-3.4,6.9-8.1,13.2-13.8,18.5-5.7,5.3-12.3,9.6-19.6,12.5-7.2,3-15.1,4.6-23,4.8,7.9.2,15.9-1.1,23.4-3.7,7.5-2.6,14.6-6.7,20.7-11.9,6.2-5.2,11.4-11.5,15.3-18.6,3.7-6.6,6.2-13.8,7.6-21.3l1.7,1.2Z"/>
  </g>
</svg>